<svg width="809" height="598" viewBox="0 0 809 598" fill="none" xmlns="http://www.w3.org/2000/svg">
<g clip-path="url(#clip0_60_195)">
<path opacity="0.18" d="M293.09 43.5999C271.84 63.2899 256.09 88.5999 233.51 106.71C195.33 137.39 143.51 143.49 98.61 163.02C68.91 175.94 40.75 196.41 27.61 226.02C16.96 249.95 18.34 278.31 29.37 302.02C34.6391 313.388 36.9804 325.893 36.1804 338.397C35.3805 350.901 31.4648 363.006 24.79 373.61C8.43998 399.51 -1.42002 429.1 0.16998 459.49C2.62998 506.23 38.12 552.34 84.73 556.64C100.73 558.12 116.81 554.87 132.65 551.97C228.32 534.47 329.58 529.95 420.58 564.24C445.52 573.64 469.53 585.89 495.46 592.07C525.75 599.29 557.33 597.92 588.46 596.51C637.04 594.31 693.72 587.51 718.53 545.67C752.92 487.67 698.14 415.26 705.93 348.3C710.24 311.3 733.57 278.76 738.49 241.87C743.83 201.77 724.82 159.38 691.32 136.7C644.8 105.21 580.47 112.85 532.44 83.6999C494.44 60.6299 468.32 15.5499 423.52 3.27994C379.58 -8.74006 325.07 13.9499 293.09 43.5999Z" fill="#68E1FD"/>
<path d="M90.9199 446.41C86.2199 414.14 75.0099 383.07 70.4699 350.77C65.9299 318.47 69.0899 282.95 89.7799 257.72C103.28 241.29 122.68 231.04 141.65 221.43C158.52 212.88 175.89 204.36 194.65 202.04C211.19 200.04 227.88 202.89 244.42 204.87C275.54 208.59 307.23 209.08 338.12 203.78C378.45 196.85 416.58 180.84 455.99 169.95C494.6 159.29 532.82 153.86 575.99 173.95C605.83 187.85 627.85 216.87 634.99 248.95C646.53 300.78 620.47 358.22 642.38 406.58C648.56 420.2 658.16 431.94 666 444.68C675.638 460.387 682.593 477.589 686.58 495.58C687.95 501.77 688.96 508.3 687.21 514.39C682.71 529.99 663.43 535.18 647.21 536.46C593.28 540.72 539.4 530.66 485.61 524.81C398.29 515.33 310.18 517 222.71 523.53C201.297 525.13 179.903 526.997 158.53 529.13C141.28 530.82 108.53 541.13 92.2699 536.22C74.1399 530.73 86.0399 518.84 89.8799 501.77C94.0099 483.7 93.5799 464.65 90.9199 446.41Z" fill="url(#paint0_linear_60_195)"/>
<path d="M383.99 137.18C383.99 137.18 375.72 170.8 363.36 180.18C350.6 189.86 337.36 171.26 337.36 171.26L330 184.58C330 184.58 343.63 206.58 357.37 207.09C371.11 207.6 383.17 195.3 383.17 195.3L383.99 137.18Z" fill="#68E1FD"/>
<path d="M313.37 114.09L315.24 113.26L353.36 122.95L364.81 200.15H363.38L313.37 114.09Z" fill="#3F3D56"/>
<path opacity="0.05" d="M133.05 530.65C133.05 530.65 49.9 536.22 37.94 544.19C25.98 552.16 119.64 553.91 269.09 549.42C418.54 544.93 533.61 549.42 615.09 557.64C696.57 565.86 807.09 564.27 808.62 544.14C810.15 524.01 606.87 523.77 606.87 523.77L133.05 530.65Z" fill="#000405"/>
<path d="M649.98 370.41C649.98 370.41 647.19 393.63 629.25 395.91H550.47L539.26 266.95H622.26C628.96 266.95 642.69 274.17 645.43 284.39C645.798 286.282 646.042 288.196 646.16 290.12C647.96 309.95 649.98 370.41 649.98 370.41Z" fill="#68E1FD"/>
<path d="M646.18 290.14H570.18L547.62 268L546.58 266.95H622.28C628.98 266.95 642.71 274.17 645.45 284.39C645.819 286.289 646.063 288.21 646.18 290.14Z" fill="url(#paint1_linear_60_195)"/>
<path d="M143.22 278.95L135.8 275.72C134.834 275.3 134.043 274.56 133.559 273.625C133.075 272.69 132.928 271.616 133.143 270.585C133.358 269.555 133.921 268.629 134.739 267.965C135.556 267.301 136.577 266.939 137.63 266.94H539.26C544.221 266.893 549.129 267.966 553.618 270.078C558.108 272.191 562.063 275.288 565.19 279.14C567.796 282.302 569.521 286.097 570.19 290.14C572 302.21 570.89 354.78 570.39 374.52C570.12 385.24 562.22 394.47 551.58 395.8L550.44 395.91H161.44L143.22 278.95Z" fill="#68E1FD"/>
<path d="M143.22 278.95L135.8 275.72C134.834 275.3 134.043 274.56 133.559 273.625C133.075 272.69 132.928 271.616 133.143 270.585C133.358 269.555 133.921 268.629 134.739 267.965C135.556 267.301 136.577 266.939 137.63 266.94H539.26C544.221 266.893 549.129 267.966 553.618 270.078C558.108 272.191 562.063 275.288 565.19 279.14C567.796 282.302 569.521 286.097 570.19 290.14C572 302.21 570.89 354.78 570.39 374.52C570.12 385.24 562.22 394.47 551.58 395.8L550.44 395.91H161.44L143.22 278.95Z" fill="#68E1FD"/>
<path d="M570.42 374.52C570.15 385.24 562.25 394.47 551.61 395.8L550.47 395.91H161.47L143.22 278.95L135.8 275.72C134.834 275.3 134.043 274.56 133.559 273.625C133.075 272.69 132.928 271.616 133.143 270.585C133.358 269.555 133.921 268.629 134.739 267.965C135.556 267.301 136.577 266.939 137.63 266.94H539.26C544.221 266.893 549.129 267.966 553.618 270.078C558.108 272.191 562.063 275.288 565.19 279.14C567.796 282.302 569.521 286.097 570.19 290.14C572.03 302.21 570.92 354.78 570.42 374.52Z" fill="url(#paint2_linear_60_195)"/>
<path opacity="0.61" d="M123.08 395.95H551.88C553.363 395.95 554.786 395.361 555.836 394.313C556.886 393.265 557.477 391.843 557.48 390.36C557.48 388.875 556.89 387.45 555.84 386.4C554.79 385.35 553.365 384.76 551.88 384.76H123.08C121.595 384.76 120.17 385.35 119.12 386.4C118.07 387.45 117.48 388.875 117.48 390.36C117.483 391.843 118.074 393.265 119.124 394.313C120.174 395.361 121.596 395.95 123.08 395.95Z" fill="url(#paint3_linear_60_195)"/>
<path d="M123.08 395.95H551.88C553.363 395.95 554.786 395.361 555.836 394.313C556.886 393.265 557.477 391.843 557.48 390.36C557.48 388.875 556.89 387.45 555.84 386.4C554.79 385.35 553.365 384.76 551.88 384.76H123.08C121.595 384.76 120.17 385.35 119.12 386.4C118.07 387.45 117.48 388.875 117.48 390.36C117.483 391.843 118.074 393.265 119.124 394.313C120.174 395.361 121.596 395.95 123.08 395.95ZM639.87 432.69V502.64C639.871 507.159 638.982 511.635 637.254 515.811C635.525 519.987 632.99 523.781 629.795 526.978C626.6 530.174 622.806 532.71 618.63 534.44C614.455 536.169 609.98 537.06 605.46 537.06H153.06C148.538 537.066 144.06 536.18 139.882 534.453C135.703 532.725 131.907 530.19 128.71 526.992C125.514 523.795 122.979 519.998 121.253 515.819C119.527 511.64 118.642 507.161 118.65 502.64V432.69C118.643 426.332 120.409 420.099 123.75 414.69C124.48 413.491 125.288 412.342 126.17 411.25C129.389 407.207 133.479 403.943 138.135 401.701C142.79 399.458 147.892 398.296 153.06 398.3H605.46C609.98 398.3 614.457 399.19 618.633 400.921C622.809 402.652 626.603 405.188 629.799 408.385C632.994 411.583 635.528 415.378 637.256 419.555C638.984 423.733 639.873 428.209 639.87 432.73V432.69Z" fill="#68E1FD"/>
<path opacity="0.61" d="M463.7 537.06H153.06C146.462 537.063 140.003 535.168 134.452 531.603C128.901 528.037 124.492 522.951 121.75 516.95H443.94C443.94 516.95 448.58 533.95 463.7 537.06Z" fill="url(#paint4_linear_60_195)"/>
<path d="M463.7 398.26C449.42 400.62 445.43 414.65 445.43 414.65H123.75L126.17 411.21C129.389 407.167 133.479 403.903 138.135 401.661C142.79 399.418 147.892 398.256 153.06 398.26H463.7Z" fill="url(#paint5_linear_60_195)"/>
<path opacity="0.61" d="M639.87 432.69V502.64C639.875 508.797 638.227 514.842 635.097 520.143C631.968 525.445 627.472 529.809 622.08 532.78H479.99C477.153 532.782 474.343 532.224 471.721 531.139C469.099 530.054 466.717 528.463 464.71 526.457C462.703 524.451 461.111 522.07 460.025 519.448C458.939 516.827 458.38 514.018 458.38 511.18V426.31C458.379 423.472 458.937 420.661 460.022 418.039C461.108 415.416 462.7 413.034 464.707 411.027C466.713 409.02 469.096 407.428 471.719 406.342C474.341 405.257 477.152 404.699 479.99 404.7H625.5C629.949 407.886 633.573 412.088 636.073 416.956C638.572 421.824 639.874 427.218 639.87 432.69Z" fill="url(#paint6_linear_60_195)"/>
<path d="M639.87 432.69V502.64C639.871 503.929 639.801 505.218 639.66 506.5C639.6 507.06 639.52 507.61 639.43 508.16C639.056 510.556 638.419 512.904 637.53 515.16C637.32 515.73 637.09 516.28 636.83 516.83C635.715 519.323 634.305 521.673 632.63 523.83C632.19 524.39 631.73 524.95 631.24 525.49C628.632 528.448 625.533 530.934 622.08 532.84H500.41C497.337 532.845 494.298 532.192 491.498 530.924C488.699 529.657 486.203 527.803 484.18 525.49C483.712 524.959 483.272 524.405 482.86 523.83C481.335 521.72 480.213 519.347 479.55 516.83C479.4 516.29 479.28 515.73 479.18 515.16C478.93 513.858 478.806 512.535 478.81 511.21V426.31C478.807 424.797 478.968 423.288 479.29 421.81C479.391 421.248 479.528 420.694 479.7 420.15C480.438 417.614 481.646 415.24 483.26 413.15C483.697 412.569 484.168 412.015 484.67 411.49C486.685 409.333 489.122 407.615 491.83 406.441C494.538 405.268 497.459 404.665 500.41 404.67H625.5C628.179 406.59 630.568 408.887 632.59 411.49C633.01 412.03 633.42 412.58 633.81 413.15C635.316 415.329 636.558 417.678 637.51 420.15C637.73 420.7 637.94 421.26 638.11 421.81C638.88 424.079 639.397 426.427 639.65 428.81C639.72 429.36 639.77 429.92 639.8 430.48C639.85 431.18 639.87 431.95 639.87 432.69Z" fill="url(#paint7_linear_60_195)"/>
<path d="M633.81 413.18H483.26C483.697 412.599 484.168 412.045 484.67 411.52H632.58C633.01 412.06 633.42 412.61 633.81 413.18ZM638.11 421.81H479.29C479.391 421.249 479.528 420.694 479.7 420.15H637.51C637.73 420.7 637.94 421.26 638.11 421.81ZM639.8 430.45H478.8V428.78H639.65C639.72 429.33 639.77 429.89 639.8 430.45Z" fill="white"/>
<path d="M639.88 437.42H478.81V439.08H639.88V437.42Z" fill="white"/>
<path d="M639.88 446.05H478.81V447.71H639.88V446.05Z" fill="white"/>
<path d="M639.88 454.69H478.81V456.35H639.88V454.69Z" fill="white"/>
<path d="M639.88 463.33H478.81V464.98H639.88V463.33Z" fill="white"/>
<path d="M639.88 471.96H478.81V473.61H639.88V471.96Z" fill="white"/>
<path d="M639.88 480.6H478.81V482.25H639.88V480.6Z" fill="white"/>
<path d="M639.88 489.23H478.81V490.88H639.88V489.23Z" fill="white"/>
<path d="M639.88 497.87H478.81V499.53H639.88V497.87Z" fill="white"/>
<path d="M639.66 506.5C639.6 507.06 639.52 507.61 639.43 508.16H478.81V506.5H639.66ZM637.58 515.13C637.37 515.7 637.14 516.25 636.88 516.8H479.58C479.43 516.26 479.31 515.7 479.21 515.13H637.58ZM632.63 523.77C632.19 524.33 631.73 524.89 631.24 525.43H484.18C483.712 524.899 483.272 524.345 482.86 523.77H632.63Z" fill="white"/>
<path d="M440.26 382.13H542.76C538.414 384.302 533.619 385.425 528.76 385.41H147.64C141.331 385.453 135.164 383.546 129.98 379.95C128.513 378.937 127.149 377.782 125.91 376.5C125.51 376.09 125.12 375.66 124.75 375.23C123.355 373.599 122.166 371.802 121.21 369.88C121 369.46 120.8 369.03 120.62 368.61C119.877 366.897 119.339 365.101 119.02 363.26C118.95 362.84 118.88 362.42 118.83 361.98C118.709 361.002 118.649 360.016 118.65 359.03V305.37C118.65 304.79 118.65 304.22 118.71 303.66C118.77 303.1 118.78 302.81 118.83 302.39C119.053 300.563 119.485 298.768 120.12 297.04C120.28 296.61 120.45 296.19 120.63 295.76C121.446 293.858 122.494 292.065 123.75 290.42C124.08 289.99 124.42 289.56 124.75 289.14C125.488 288.278 126.28 287.463 127.12 286.7C132.757 281.652 140.074 278.889 147.64 278.95H528.76C534.75 278.943 540.612 280.681 545.63 283.95H440.26C438.656 283.947 437.057 284.142 435.5 284.53C432.304 285.293 429.37 286.895 427 289.17C426.575 289.57 426.178 289.997 425.81 290.45C424.472 292.018 423.453 293.832 422.81 295.79C422.669 296.21 422.552 296.637 422.46 297.07C422.189 298.2 422.055 299.358 422.06 300.52V365.59C422.064 366.598 422.168 367.603 422.37 368.59C422.451 369.02 422.558 369.444 422.69 369.86C423.261 371.807 424.205 373.624 425.47 375.21C425.816 375.654 426.186 376.078 426.58 376.48C428.297 378.258 430.364 379.661 432.65 380.6C435.058 381.617 437.646 382.137 440.26 382.13Z" fill="#68E1FD"/>
<path d="M557.74 305.76V359.13C557.74 359.44 557.74 359.75 557.74 360.05C557.74 360.35 557.74 360.67 557.68 360.97C557.62 361.27 557.63 361.58 557.6 361.88C557.57 362.18 557.52 362.44 557.49 362.71C557.46 362.98 557.42 363.14 557.38 363.35C557.369 363.458 557.349 363.565 557.32 363.67C557.27 363.96 557.21 364.26 557.14 364.55C557.07 364.84 557.05 364.93 556.99 365.12C556.93 365.31 556.9 365.49 556.84 365.68C556.78 365.87 556.73 366.08 556.67 366.28L556.46 366.89C556.46 367.06 556.36 367.22 556.3 367.38C556.24 367.54 556.14 367.81 556.05 368.02L555.78 368.67C555.737 368.791 555.683 368.908 555.62 369.02C555.557 369.188 555.483 369.352 555.4 369.51C555.34 369.65 555.26 369.79 555.19 369.93C555.12 370.07 554.98 370.36 554.86 370.56C554.74 370.76 554.52 371.21 554.33 371.56L554.02 372.06C553.74 372.52 553.45 372.96 553.14 373.39C552.98 373.62 552.82 373.83 552.66 374.04C552.34 374.47 552 374.88 551.66 375.29C551.32 375.7 550.9 376.15 550.49 376.56C549.67 377.398 548.799 378.183 547.88 378.91C547.862 378.935 547.838 378.956 547.81 378.97C547.51 379.21 547.21 379.43 546.9 379.66L545.9 380.35L544.9 380.99C544.58 381.19 544.26 381.37 543.9 381.56L542.75 382.17H440.26C437.648 382.179 435.061 381.666 432.65 380.66C430.367 379.724 428.301 378.328 426.58 376.56C426.186 376.158 425.816 375.734 425.47 375.29C424.204 373.716 423.259 371.909 422.69 369.97C422.558 369.557 422.451 369.136 422.37 368.71C422.167 367.723 422.063 366.718 422.06 365.71V300.89C422.056 299.735 422.19 298.583 422.46 297.46C422.552 297.03 422.669 296.606 422.81 296.19C423.454 294.241 424.473 292.437 425.81 290.88C426.178 290.427 426.575 290 427 289.6C429.377 287.338 432.309 285.744 435.5 284.98C437.058 284.6 438.656 284.409 440.26 284.41H545.63C546.09 284.71 546.55 285.02 546.99 285.35L547.5 285.73C548.196 286.247 548.863 286.802 549.5 287.39L550.05 287.91L550.45 288.31L550.99 288.87L551.53 289.47L551.64 289.6L551.72 289.7C552.04 290.08 552.36 290.48 552.66 290.88C552.82 291.08 552.97 291.29 553.12 291.49C553.135 291.52 553.155 291.547 553.18 291.57C553.447 291.957 553.707 292.347 553.96 292.74L554.39 293.44C554.65 293.88 554.9 294.34 555.13 294.79C555.24 295.03 555.36 295.25 555.47 295.48C555.58 295.71 555.69 295.96 555.78 296.19C555.87 296.42 555.97 296.61 556.05 296.83C556.13 297.05 556.22 297.25 556.29 297.46C556.36 297.67 556.44 297.88 556.51 298.09C556.814 298.956 557.058 299.841 557.24 300.74C557.272 300.855 557.295 300.972 557.31 301.09C557.31 301.3 557.39 301.51 557.43 301.72C557.47 301.93 557.54 302.43 557.59 302.78C557.64 303.13 557.69 303.62 557.71 304.05C557.71 304.27 557.71 304.5 557.71 304.73C557.71 304.96 557.74 305.41 557.74 305.76Z" fill="url(#paint8_linear_60_195)"/>
<path d="M432.65 380.61C430.39 381.157 428.057 381.664 425.65 382.13H153.92C145.888 382.177 137.871 381.447 129.98 379.95C128.513 378.937 127.149 377.782 125.91 376.5C125.51 376.09 125.12 375.66 124.75 375.23C123.355 373.599 122.166 371.802 121.21 369.88C121 369.46 120.8 369.03 120.62 368.61C119.877 366.897 119.339 365.101 119.02 363.26C118.95 362.84 118.88 362.42 118.83 361.98C118.709 361.002 118.649 360.016 118.65 359.03V305.37C118.65 304.79 118.65 304.22 118.71 303.66C118.77 303.1 118.78 302.81 118.83 302.39C119.053 300.563 119.485 298.768 120.12 297.04C120.28 296.61 120.45 296.19 120.63 295.76C121.446 293.859 122.494 292.065 123.75 290.42C124.08 289.99 124.42 289.56 124.75 289.14C125.488 288.278 126.28 287.463 127.12 286.7C135.925 284.8 144.913 283.878 153.92 283.95H433.26L435.5 284.53C432.304 285.293 429.37 286.895 427 289.17C426.575 289.57 426.178 289.997 425.81 290.45C424.472 292.018 423.453 293.832 422.81 295.79C422.669 296.21 422.552 296.637 422.46 297.07C422.189 298.2 422.055 299.358 422.06 300.52V365.59C422.064 366.598 422.168 367.603 422.37 368.59C422.451 369.02 422.558 369.444 422.69 369.86C423.261 371.807 424.205 373.624 425.47 375.21C425.816 375.654 426.186 376.078 426.58 376.48C428.296 378.262 430.363 379.668 432.65 380.61Z" fill="#68E1FD"/>
<path d="M432.65 380.61C430.39 381.157 428.057 381.664 425.65 382.13H153.92C145.888 382.177 137.871 381.447 129.98 379.95C128.513 378.937 127.149 377.782 125.91 376.5C125.51 376.09 125.12 375.66 124.75 375.23C123.355 373.599 122.166 371.802 121.21 369.88C121 369.46 120.8 369.03 120.62 368.61C119.877 366.897 119.339 365.101 119.02 363.26C118.95 362.84 118.88 362.42 118.83 361.98C118.709 361.002 118.649 360.016 118.65 359.03V305.37C118.65 304.79 118.65 304.22 118.71 303.66C118.77 303.1 118.78 302.81 118.83 302.39C119.053 300.563 119.485 298.768 120.12 297.04C120.28 296.61 120.45 296.19 120.63 295.76C121.446 293.859 122.494 292.065 123.75 290.42C124.08 289.99 124.42 289.56 124.75 289.14C125.488 288.278 126.28 287.463 127.12 286.7C135.925 284.8 144.913 283.878 153.92 283.95H433.26L435.5 284.53C432.304 285.293 429.37 286.895 427 289.17C426.575 289.57 426.178 289.997 425.81 290.45C424.472 292.018 423.453 293.832 422.81 295.79C422.669 296.21 422.552 296.637 422.46 297.07C422.189 298.2 422.055 299.358 422.06 300.52V365.59C422.064 366.598 422.168 367.603 422.37 368.59C422.451 369.02 422.558 369.444 422.69 369.86C423.261 371.807 424.205 373.624 425.47 375.21C425.816 375.654 426.186 376.078 426.58 376.48C428.296 378.262 430.363 379.668 432.65 380.61Z" fill="url(#paint9_linear_60_195)"/>
<path d="M550.47 386.11C549.666 387.04 548.794 387.91 547.86 388.71C548.786 387.902 549.658 387.033 550.47 386.11Z" fill="url(#paint10_linear_60_195)"/>
<path d="M553.09 292.23C552.94 292 552.79 291.77 552.63 291.55C552.33 291.11 552.01 290.67 551.69 290.25C552.19 290.89 552.66 291.55 553.09 292.23Z" fill="url(#paint11_linear_60_195)"/>
<path d="M556.26 298.82C556.34 299.05 556.41 299.28 556.48 299.51C556.35 299.04 556.19 298.58 556.02 298.12C556.11 298.35 556.19 298.58 556.26 298.82Z" fill="url(#paint12_linear_60_195)"/>
<path d="M557.74 305.76V359.13C557.74 359.64 557.74 360.13 557.74 360.65C557.74 361.17 557.69 361.42 557.64 361.81C557.46 363.457 557.105 365.079 556.58 366.65C556.46 367.04 556.33 367.42 556.18 367.79C553.658 374.064 548.893 379.176 542.81 382.13H423.05C413.81 382.13 406.18 375.89 405.05 367.81C404.979 367.427 404.939 367.039 404.93 366.65C404.893 366.318 404.877 365.984 404.88 365.65V300.89C404.88 291.78 413.02 284.41 423.08 284.41H545.63C552.97 289.17 557.74 296.95 557.74 305.76Z" fill="#68E1FD"/>
<path d="M552.63 290.42H425.81C426.178 289.967 426.575 289.54 427 289.14H551.58C551.96 289.56 552.3 289.95 552.63 290.42ZM556.26 297.04H422.46C422.551 296.607 422.668 296.179 422.81 295.76H555.76C555.94 296.18 556.11 296.61 556.26 297.04ZM557.69 303.66H422.06V302.38H557.58C557.58 302.8 557.66 303.23 557.69 303.66Z" fill="white"/>
<path d="M557.75 309H422.06V310.28H557.75V309Z" fill="white"/>
<path d="M557.75 315.62H422.06V316.9H557.75V315.62Z" fill="white"/>
<path d="M557.75 322.24H422.06V323.52H557.75V322.24Z" fill="white"/>
<path d="M557.75 328.87H422.06V330.14H557.75V328.87Z" fill="white"/>
<path d="M557.75 335.49H422.06V336.76H557.75V335.49Z" fill="white"/>
<path d="M557.75 342.11H422.06V343.38H557.75V342.11Z" fill="white"/>
<path d="M557.75 348.73H422.06V350H557.75V348.73Z" fill="white"/>
<path d="M557.75 355.35H422.06V356.63H557.75V355.35Z" fill="white"/>
<path d="M557.76 361.95C557.737 362.376 557.737 362.804 557.76 363.23H422.06V361.95H557.76ZM555.77 368.59C555.77 369.02 555.22 369.44 555.18 369.87H422.69C422.556 369.451 422.449 369.023 422.37 368.59H555.77ZM430.68 290.42H123.75C124.08 289.99 124.42 289.56 124.75 289.14H428.24C429.08 289.56 429.89 289.95 430.68 290.42ZM427.92 297.04H120.12C120.28 296.61 120.45 296.19 120.63 295.76H426.71C427.137 296.164 427.541 296.591 427.92 297.04ZM431.32 303.66H118.71C118.71 303.23 118.78 302.81 118.83 302.39H431.02C431.145 302.807 431.245 303.231 431.32 303.66Z" fill="white"/>
<path d="M431.46 309H118.64V310.27H431.46V309Z" fill="white"/>
<path d="M431.46 315.62H118.64V316.89H431.46V315.62Z" fill="white"/>
<path d="M431.46 322.24H118.64V323.52H431.46V322.24Z" fill="white"/>
<path d="M431.46 328.87H118.64V330.14H431.46V328.87Z" fill="white"/>
<path d="M431.46 335.5H118.64V336.76H431.46V335.5Z" fill="white"/>
<path d="M431.46 342.11H118.64V343.37H431.46V342.11Z" fill="white"/>
<path d="M431.46 348.73H118.64V350H431.46V348.73Z" fill="white"/>
<path d="M431.46 355.35H118.64V356.63H431.46V355.35Z" fill="white"/>
<path d="M431.04 361.95C430.907 362.385 430.75 362.813 430.57 363.23H119.02C118.95 362.81 118.88 362.39 118.83 361.95H431.04ZM426.75 368.6C426.303 369.048 425.832 369.472 425.34 369.87H121.21C121 369.45 120.8 369.02 120.62 368.6H426.75Z" fill="white"/>
<path opacity="0.2" d="M442.37 266.95C437.86 272.37 432.03 277.82 429.72 279.03C416.58 285.95 401.36 291.3 393.65 303.95C383.89 319.95 390.2 340.88 385.72 359.1C384.9 362.42 383.63 365.81 381.06 368.1C378.49 370.39 374.36 371.17 371.63 369.1C369.23 367.29 368.63 364.01 368.18 361.04C364.239 333.004 364.091 304.566 367.74 276.49C352.74 283.19 342.59 297.33 334.58 311.63C326.57 325.93 319.85 341.26 308.69 353.27C305.52 356.67 301.35 360 296.75 359.34C291.22 352.34 294.12 342.11 297.26 333.73C303.55 316.9 309.86 300.03 317.96 283.98C320.58 278.78 323.49 273.56 327.89 269.74C329.094 268.698 330.393 267.771 331.77 266.97L442.37 266.95Z" fill="#3F3D56"/>
<path d="M551.64 375.22C551.3 375.67 550.92 376.02 550.54 376.49H125.91C125.51 376.08 125.12 375.65 124.75 375.22H551.64Z" fill="white"/>
<path d="M217.78 537.06H166.47C150.02 532.92 142.05 515.13 142.05 515.13C142.05 515.13 140.56 428.13 142.05 417.13C143.54 406.13 168.46 398.23 168.46 398.23H217.78C201.33 400.59 189.38 416.63 189.38 416.63C189.38 416.63 188.38 512.78 189.38 519.25C190.38 525.72 217.78 537.06 217.78 537.06Z" fill="url(#paint13_linear_60_195)"/>
<path d="M217.78 537.06H201.33C184.9 532.92 176.93 515.13 176.93 515.13C176.93 515.13 175.43 428.13 176.93 417.13C178.43 406.13 203.33 398.23 203.33 398.23H217.78C201.33 400.59 189.38 416.63 189.38 416.63C189.38 416.63 188.38 512.78 189.38 519.25C190.38 525.72 217.78 537.06 217.78 537.06Z" fill="url(#paint14_linear_60_195)"/>
<path d="M289.24 329.8L284.46 338.1L295.56 342.93L300.15 335.03L289.24 329.8Z" fill="url(#paint15_linear_60_195)"/>
<path d="M363.87 352.09L363.35 361.34L375.45 360.64L375.96 352.09H363.87Z" fill="url(#paint16_linear_60_195)"/>
<path d="M286.64 336.26C286.395 335.756 286.056 335.305 285.64 334.93C285.148 334.605 284.586 334.399 284 334.33L264.79 330.47C264.097 330.299 263.384 330.222 262.67 330.24C260.83 330.36 259.32 331.71 258.11 333.1C257.416 333.756 256.971 334.632 256.85 335.58C256.921 336.174 257.113 336.748 257.416 337.264C257.719 337.78 258.126 338.228 258.61 338.58C259.96 339.832 261.379 341.007 262.86 342.1C265.706 344.096 268.668 345.923 271.73 347.57C273.79 348.73 275.85 349.89 277.96 350.95C281.43 352.69 285.03 354.15 288.65 355.57C288.769 355.645 288.902 355.695 289.041 355.718C289.18 355.74 289.321 355.735 289.458 355.703C289.595 355.67 289.724 355.611 289.838 355.528C289.951 355.445 290.047 355.34 290.12 355.22C292.739 352.489 294.804 349.277 296.2 345.76C296.55 344.89 297.2 342.98 296.2 342.26C295.85 342.01 294.86 342.05 294.42 341.95C293.764 341.791 293.122 341.581 292.5 341.32C290.062 340.293 288.011 338.522 286.64 336.26ZM364.58 357.14C364.115 356.83 363.596 356.609 363.05 356.49C362.461 356.456 361.872 356.558 361.33 356.79L342.79 363.12C342.105 363.319 341.449 363.609 340.84 363.98C339.31 364.98 338.68 366.98 338.33 368.75C338.063 369.665 338.123 370.644 338.5 371.52C338.856 371.994 339.306 372.389 339.823 372.68C340.339 372.971 340.91 373.151 341.5 373.21C343.294 373.615 345.111 373.916 346.94 374.11C350.401 374.41 353.878 374.5 357.35 374.38C359.72 374.38 362.08 374.32 364.44 374.17C368.32 373.93 372.17 373.38 376 372.79C376.278 372.801 376.549 372.702 376.755 372.515C376.96 372.328 377.084 372.068 377.1 371.79C377.988 368.11 378.161 364.295 377.61 360.55C377.47 359.62 377.04 357.66 375.83 357.55C375.4 357.5 374.57 358.04 374.14 358.17C373.487 358.37 372.818 358.511 372.14 358.59C369.53 358.919 366.883 358.411 364.58 357.14Z" fill="#3F3D56"/>
<path d="M439.64 232.4C439.64 232.4 436.5 261.79 409.41 266.97C391.07 270.48 368.64 269.23 356.08 268.06C353.11 267.786 350.122 268.339 347.446 269.657C344.771 270.975 342.512 273.008 340.92 275.53L301.92 337.65L290.62 332.19H290.53L286.53 330.27L319.01 254.49C320.918 249.783 323.846 245.558 327.585 242.12C331.324 238.682 335.779 236.117 340.63 234.61L377.94 223.06L386.66 220.36C386.66 220.36 421.58 216.84 439.64 232.4Z" fill="#3F3D56"/>
<path opacity="0.24" d="M377.97 223.02L380.42 228.21C380.42 228.21 337.42 240.81 332.14 246.94C325.09 255.14 290.63 332.19 290.63 332.19H290.54L286.54 330.27L319.02 254.49C320.928 249.783 323.856 245.558 327.595 242.12C331.334 238.682 335.79 236.117 340.64 234.61L377.97 223.02Z" fill="white"/>
<path d="M393.24 227.3C393.24 227.3 358.7 260.95 357.58 278.95C356.46 296.95 361.29 353.39 361.29 353.39H378.05C378.05 353.39 377.22 284.87 384.05 284.39C390.88 283.91 421.84 264.01 426.81 258.3C431.78 252.59 439.71 232.38 439.71 232.38L393.24 227.3Z" fill="#3F3D56"/>
<path d="M439.64 232.4C439.64 232.4 411.95 246.53 383.2 230C380.692 228.56 378.283 226.953 375.99 225.19C375.99 225.19 388.11 203.54 378.46 172.09C374.33 158.64 374.24 132.96 394.69 129.3H394.79C415.13 125.69 413.98 130.71 413.98 130.71L423.18 139.65C440.87 154.04 442.81 176.01 439.64 232.4Z" fill="#68E1FD"/>
<path opacity="0.24" d="M394.79 129.28C393.937 131.13 392.617 132.726 390.96 133.91C390.96 133.91 378.8 139.3 381.23 157.13C383.66 174.96 388.11 209.25 388.11 209.25L383.2 230C380.692 228.56 378.283 226.953 375.99 225.19C375.99 225.19 388.11 203.54 378.46 172.09C374.33 158.64 374.24 132.96 394.69 129.3L394.79 129.28Z" fill="white"/>
<path d="M413.08 128.14C411.975 129.459 410.614 130.54 409.08 131.319C407.545 132.097 405.869 132.556 404.152 132.668C402.435 132.78 400.713 132.543 399.09 131.971C397.467 131.399 395.977 130.504 394.71 129.34C394.71 129.34 379.71 144.34 394.87 146.15C402.87 147.15 412.72 137.47 415.57 132L413.08 128.14Z" fill="#3F3D56"/>
<path d="M417.58 114.09C417.52 114.29 414.7 122.92 412.58 129.09C411.007 133.899 407.669 137.934 403.24 140.38C400.641 141.948 397.748 142.969 394.74 143.38C394.021 143.445 393.298 143.311 392.65 142.992C392.003 142.673 391.456 142.181 391.07 141.571C390.684 140.961 390.475 140.256 390.464 139.534C390.453 138.812 390.642 138.101 391.01 137.48C391.71 136.25 392.47 134.83 393.17 133.32C394.63 130.18 395.85 126.69 395.65 123.93C395.65 123.83 395.65 123.72 395.65 123.63C395.47 122.19 396.41 120.92 397.99 119.81C400.22 118.26 403.73 117.04 407.16 116.12C410.593 115.25 414.072 114.572 417.58 114.09Z" fill="url(#paint17_linear_60_195)"/>
<path d="M395.35 133.2C394.663 133.339 393.96 133.389 393.26 133.35C394.72 130.21 395.94 126.72 395.74 123.96L398.06 119.84L399.79 116.78L407.23 116.15L414.75 115.52C409.79 127.25 401.46 132.11 395.35 133.2Z" fill="url(#paint18_linear_60_195)"/>
<path d="M409.32 74.63C406.599 74.0596 403.789 74.0582 401.068 74.6259C398.346 75.1936 395.771 76.3181 393.505 77.9287C391.239 79.5394 389.33 81.6013 387.899 83.985C386.468 86.3687 385.546 89.0226 385.19 91.78C383.652 99.8619 383.588 108.155 385 116.26C388.43 128.81 406.86 124.26 410.6 120.45C414.34 116.64 429.37 99.08 426.91 92.25C425.34 87.61 419.84 77.01 409.32 74.63Z" fill="url(#paint19_linear_60_195)"/>
<path d="M394.47 62.3902L397.31 64.9502C395.358 64.3748 393.298 64.2715 391.298 64.6488C389.299 65.0261 387.418 65.8732 385.81 67.1202C381.975 69.3158 379.158 72.9334 377.97 77.1902L384.28 76.0602C384.28 76.0602 381.98 82.8502 392.44 86.2402C402.9 89.6302 414 93.1002 414 93.1002L411.76 87.1002C411.76 87.1002 417.63 91.5202 418.12 94.2802C418.102 98.4661 417.767 102.645 417.12 106.78C417.12 106.78 421.6 100.68 422.28 102.46C422.96 104.24 419.06 109.81 417.28 110.8C415.5 111.79 414.66 115.9 414.44 116.2C414.22 116.5 422.44 112.76 423.25 110.92C424.06 109.08 435.97 91.5702 432.72 86.3302L435.41 86.8402C434.13 85.3684 432.538 84.2002 430.75 83.4202C430.75 83.4202 419.58 55.9502 394.47 62.3902Z" fill="#3F3D56"/>
<path d="M390.51 210.05C389 208.54 387.51 206.74 385.4 206.38C384.66 208.14 386.17 209.95 386.81 211.74C386.906 211.939 386.957 212.158 386.957 212.38C386.957 212.602 386.906 212.82 386.81 213.02C386.51 213.5 385.81 213.53 385.26 213.49C382.592 213.299 379.974 212.67 377.51 211.63C375.23 210.63 373.04 209.34 370.57 209.09C370.306 209.037 370.032 209.072 369.79 209.19C369.19 209.57 369.54 210.49 369.97 211.05C370.888 212.259 371.93 213.369 373.08 214.36C371.337 213.59 369.478 213.114 367.58 212.95C367.05 212.95 366.33 213.06 366.34 213.59C366.374 213.808 366.48 214.008 366.64 214.16C368.045 215.769 369.742 217.099 371.64 218.08C370.26 217.789 368.849 217.671 367.44 217.73C366.83 217.73 366.02 218.05 366.11 218.65C366.155 218.845 366.251 219.025 366.39 219.17C368.08 221.214 370.366 222.679 372.93 223.36L368.93 223.45C368.678 223.438 368.427 223.489 368.2 223.6C367.48 224.06 368.11 225.19 368.81 225.68C371.89 227.83 375.81 228.21 379.58 228.48C386.79 229 394.38 229.28 400.88 226.1C401.35 225.86 401.88 225.54 401.97 225.02C401.99 224.748 401.949 224.474 401.85 224.22C401.06 221.59 400.66 216.82 398.27 215.22C397.11 214.45 395.68 214.01 394.49 213.22C393.3 212.43 391.87 210.73 390.51 210.05Z" fill="url(#paint20_linear_60_195)"/>
<path d="M445.51 204.47C443.25 226.68 402.95 229.4 402.95 229.4L398.8 215.13L398.07 212.62C398.07 212.62 419.63 209.9 423.75 203.15C427.87 196.4 410.91 173.77 421.16 161.15C431.41 148.53 433.74 152.41 433.74 152.41C433.74 152.41 447.75 182.26 445.51 204.47Z" fill="#68E1FD"/>
<path d="M337.39 171.27C337.39 171.27 337.39 172.1 337.22 173.35C336.88 176.46 335.91 182.15 333.33 184.22C329.7 187.13 329.2 182.89 329.28 181.22C329.36 180.303 329.51 179.394 329.73 178.5C330.57 174.88 335.02 172.4 336.73 171.58L337.39 171.27Z" fill="url(#paint21_linear_60_195)"/>
<path d="M337.22 173.35C336.88 176.46 335.91 182.15 333.33 184.22C332.21 183.41 330.77 182.33 329.28 181.22C327.28 179.72 325.15 178.14 323.64 177.04C322.297 176.139 321.073 175.07 320 173.86C319.064 172.628 318.285 171.284 317.68 169.86L314.58 163.12C313.58 160.91 312.58 157.99 314.36 156.28C314.81 155.84 318.91 155.04 319.18 154.46C319.93 152.8 315.18 149.29 315.48 147.46C315.629 146.961 315.947 146.531 316.38 146.242C316.813 145.954 317.333 145.826 317.85 145.88C318.85 145.93 321.69 148.54 322.58 149.07C324.34 150.07 322.86 151.49 324.58 152.53C326.812 153.676 328.839 155.183 330.58 156.99C332.52 159.26 333.5 162.17 334.43 164.99C335.11 167.06 336.02 169.3 336.72 171.53C336.91 172.17 337.08 172.76 337.22 173.35Z" fill="url(#paint22_linear_60_195)"/>
<path d="M322.51 157.41L315.84 125.78L313.37 114.09L352.13 124.48L363.38 200.15L327.36 189.17L322.51 157.41Z" fill="#68E1FD"/>
<path d="M330.58 157.03L315.24 122.95L327.36 189.17L363.38 200.15L359.52 174.2L330.58 157.03Z" fill="url(#paint23_linear_60_195)"/>
<path d="M324.72 171.05C325.94 170.44 328.44 169.33 329.07 168.12C329.22 167.83 329.44 167.45 329.25 167.19C328.38 165.99 324.8 167.52 323.78 167.19C324.48 166.04 330.72 162.55 327.78 161.76C327.15 161.59 323.24 163.57 322.61 163.39C323.1 162.99 327.12 160.13 327.81 159.39C328.009 159.17 328.128 158.888 328.146 158.591C328.164 158.295 328.081 158.001 327.91 157.758C327.739 157.515 327.49 157.337 327.205 157.254C326.92 157.171 326.615 157.187 326.34 157.3C324.211 158.278 322.027 159.133 319.8 159.86C320.23 159.15 326.04 155.86 326.27 155.02C326.389 154.718 326.41 154.385 326.33 154.07C326.248 153.893 326.13 153.735 325.984 153.606C325.837 153.477 325.666 153.379 325.48 153.32C323.86 152.69 322.04 153.32 320.42 153.97L316.58 155.49C315.35 155.97 313.99 156.59 313.58 157.83C313.4 158.458 313.369 159.118 313.49 159.76C313.968 163.791 315.412 167.647 317.7 171C318.84 172.66 322.44 176.67 324.51 177.06C326.35 177.41 323.01 171.95 324.72 171.05Z" fill="url(#paint24_linear_60_195)"/>
<path opacity="0.24" d="M364.82 273.56C364.82 273.56 378.04 243.27 393.32 234.65L388.11 232.54C388.11 232.54 361.28 261.07 358.11 275.75C354.94 290.43 361.3 353.42 361.3 353.42H365.7C365.7 353.42 358.43 279.74 364.82 273.56ZM424.92 207.95C416.41 211.45 401.92 214.5 398.8 215.14L398.2 215.26L398.07 212.63C398.07 212.63 419.63 209.91 423.75 203.16C427.87 196.41 410.91 173.78 421.16 161.16C421.16 161.16 419.86 172.32 423.23 180.57C426.6 188.82 434.48 204.01 424.92 207.95Z" fill="white"/>
</g>
<defs>
<linearGradient id="paint0_linear_60_195" x1="420.28" y1="709" x2="258.3" y2="-188.64" gradientUnits="userSpaceOnUse">
<stop offset="0.02" stop-color="#68E1FD"/>
<stop offset="1" stop-color="white" stop-opacity="0"/>
</linearGradient>
<linearGradient id="paint1_linear_60_195" x1="588.21" y1="263.04" x2="650.32" y2="357.69" gradientUnits="userSpaceOnUse">
<stop stop-color="white" stop-opacity="0"/>
<stop offset="0.99" stop-color="white"/>
</linearGradient>
<linearGradient id="paint2_linear_60_195" x1="351.68" y1="341.05" x2="353.45" y2="180.81" gradientUnits="userSpaceOnUse">
<stop stop-color="white" stop-opacity="0"/>
<stop offset="0.99" stop-color="white"/>
</linearGradient>
<linearGradient id="paint3_linear_60_195" x1="412.25" y1="210.45" x2="329.01" y2="410.68" gradientUnits="userSpaceOnUse">
<stop offset="0.17" stop-color="#00272E"/>
<stop offset="1" stop-color="#69B9EB" stop-opacity="0"/>
</linearGradient>
<linearGradient id="paint4_linear_60_195" x1="290.12" y1="452" x2="294.34" y2="573.48" gradientUnits="userSpaceOnUse">
<stop offset="0.17" stop-color="#00272E"/>
<stop offset="1" stop-color="#69B9EB" stop-opacity="0"/>
</linearGradient>
<linearGradient id="paint5_linear_60_195" x1="295.42" y1="385.22" x2="290.11" y2="451.62" gradientUnits="userSpaceOnUse">
<stop stop-color="white" stop-opacity="0"/>
<stop offset="0.99" stop-color="white"/>
</linearGradient>
<linearGradient id="paint6_linear_60_195" x1="373.07" y1="466.76" x2="541.85" y2="468.62" gradientUnits="userSpaceOnUse">
<stop offset="0.18" stop-color="#00272E"/>
<stop offset="1" stop-color="#69B9EB" stop-opacity="0"/>
</linearGradient>
<linearGradient id="paint7_linear_60_195" x1="662.73" y1="477.01" x2="412.3" y2="456.36" gradientUnits="userSpaceOnUse">
<stop stop-color="#68E1FD"/>
<stop offset="1" stop-color="white"/>
</linearGradient>
<linearGradient id="paint8_linear_60_195" x1="559.5" y1="338.79" x2="419.83" y2="327.28" gradientUnits="userSpaceOnUse">
<stop stop-color="#68E1FD"/>
<stop offset="1" stop-color="white"/>
</linearGradient>
<linearGradient id="paint9_linear_60_195" x1="426.86" y1="333.02" x2="55.6" y2="333.02" gradientUnits="userSpaceOnUse">
<stop stop-color="white" stop-opacity="0"/>
<stop offset="0.99" stop-color="white"/>
</linearGradient>
<linearGradient id="paint10_linear_60_195" x1="547.86" y1="387.41" x2="550.47" y2="387.41" gradientUnits="userSpaceOnUse">
<stop stop-color="#68E1FD"/>
<stop offset="1" stop-color="#69B9EB"/>
</linearGradient>
<linearGradient id="paint11_linear_60_195" x1="551.69" y1="291.24" x2="553.09" y2="291.24" gradientUnits="userSpaceOnUse">
<stop stop-color="#68E1FD"/>
<stop offset="1" stop-color="#69B9EB"/>
</linearGradient>
<linearGradient id="paint12_linear_60_195" x1="556.02" y1="298.82" x2="556.48" y2="298.82" gradientUnits="userSpaceOnUse">
<stop stop-color="#68E1FD"/>
<stop offset="1" stop-color="#69B9EB"/>
</linearGradient>
<linearGradient id="paint13_linear_60_195" x1="165.33" y1="566.11" x2="199.7" y2="356.39" gradientUnits="userSpaceOnUse">
<stop stop-color="white" stop-opacity="0"/>
<stop offset="0.99" stop-color="white"/>
</linearGradient>
<linearGradient id="paint14_linear_60_195" x1="203.38" y1="402.26" x2="187.94" y2="593.55" gradientUnits="userSpaceOnUse">
<stop offset="0.02" stop-color="#68E1FD"/>
<stop offset="1" stop-color="white"/>
</linearGradient>
<linearGradient id="paint15_linear_60_195" x1="301.88" y1="337.15" x2="278.8" y2="335.24" gradientUnits="userSpaceOnUse">
<stop stop-color="#ECC4D7"/>
<stop offset="0.42" stop-color="#EFD4D1"/>
<stop offset="1" stop-color="#F2EAC9"/>
</linearGradient>
<linearGradient id="paint16_linear_60_195" x1="378.242" y1="352.798" x2="357.109" y2="361.4" gradientUnits="userSpaceOnUse">
<stop stop-color="#ECC4D7"/>
<stop offset="0.42" stop-color="#EFD4D1"/>
<stop offset="1" stop-color="#F2EAC9"/>
</linearGradient>
<linearGradient id="paint17_linear_60_195" x1="394.259" y1="128.656" x2="413.229" y2="133.739" gradientUnits="userSpaceOnUse">
<stop stop-color="#ECC4D7"/>
<stop offset="0.42" stop-color="#EFD4D1"/>
<stop offset="1" stop-color="#F2EAC9"/>
</linearGradient>
<linearGradient id="paint18_linear_60_195" x1="410.405" y1="118.24" x2="362.056" y2="164.917" gradientUnits="userSpaceOnUse">
<stop stop-color="#ECC4D7"/>
<stop offset="0.42" stop-color="#EFD4D1"/>
<stop offset="1" stop-color="#F2EAC9"/>
</linearGradient>
<linearGradient id="paint19_linear_60_195" x1="384.244" y1="97.7613" x2="424.416" y2="108.526" gradientUnits="userSpaceOnUse">
<stop stop-color="#ECC4D7"/>
<stop offset="0.42" stop-color="#EFD4D1"/>
<stop offset="1" stop-color="#F2EAC9"/>
</linearGradient>
<linearGradient id="paint20_linear_60_195" x1="366.06" y1="217.61" x2="401.91" y2="217.61" gradientUnits="userSpaceOnUse">
<stop stop-color="#ECC4D7"/>
<stop offset="0.42" stop-color="#EFD4D1"/>
<stop offset="1" stop-color="#F2EAC9"/>
</linearGradient>
<linearGradient id="paint21_linear_60_195" x1="329.28" y1="178.24" x2="337.39" y2="178.24" gradientUnits="userSpaceOnUse">
<stop stop-color="#183866"/>
<stop offset="1" stop-color="#1A7FC1"/>
</linearGradient>
<linearGradient id="paint22_linear_60_195" x1="313.37" y1="165.07" x2="337.22" y2="165.07" gradientUnits="userSpaceOnUse">
<stop stop-color="#ECC4D7"/>
<stop offset="0.42" stop-color="#EFD4D1"/>
<stop offset="1" stop-color="#F2EAC9"/>
</linearGradient>
<linearGradient id="paint23_linear_60_195" x1="327.09" y1="142.14" x2="375.33" y2="258.79" gradientUnits="userSpaceOnUse">
<stop stop-color="white" stop-opacity="0"/>
<stop offset="0.99" stop-color="white"/>
</linearGradient>
<linearGradient id="paint24_linear_60_195" x1="313.37" y1="165.06" x2="329.33" y2="165.06" gradientUnits="userSpaceOnUse">
<stop stop-color="#ECC4D7"/>
<stop offset="0.42" stop-color="#EFD4D1"/>
<stop offset="1" stop-color="#F2EAC9"/>
</linearGradient>
<clipPath id="clip0_60_195">
<rect width="808.6" height="597.63" fill="white"/>
</clipPath>
</defs>
</svg>
